<mxfile host="app.diagrams.net" modified="2023-09-15T08:56:22.090Z" agent="Mozilla/5.0 (Windows NT 10.0; Win64; x64) AppleWebKit/537.36 (KHTML, like Gecko) Chrome/116.0.0.0 Safari/537.36 Edg/116.0.1938.81" version="21.2.3" etag="eUABp7TUTN4RGpXSYeqn" type="github">
  <diagram name="Page-1" id="ItdS4Nvbr07j0XzrFGwK">
    <mxGraphModel>
      <root>
        <mxCell id="0" />
        <mxCell id="1" parent="0" />
      </root>
    </mxGraphModel>
  </diagram>
</mxfile>
